<mxfile host="app.diagrams.net" agent="Mozilla/5.0 (Windows NT 10.0; Win64; x64) AppleWebKit/537.36 (KHTML, like Gecko) Chrome/129.0.0.0 Safari/537.36 Edg/129.0.0.0" version="24.7.16">
  <diagram name="Page-1" id="bLUjW3fCqwoV8X9jDcCE">
    <mxGraphModel dx="2972" dy="2308" grid="1" gridSize="10" guides="1" tooltips="1" connect="1" arrows="1" fold="1" page="1" pageScale="1" pageWidth="850" pageHeight="1100" math="0" shadow="0">
      <root>
        <mxCell id="0" />
        <mxCell id="1" parent="0" />
        <mxCell id="1ge-WBIYMBq1j4Ka3UeQ-8" value="" style="endArrow=classic;html=1;rounded=0;entryX=-0.002;entryY=0.348;entryDx=0;entryDy=0;exitX=1;exitY=0.197;exitDx=0;exitDy=0;exitPerimeter=0;entryPerimeter=0;" edge="1" parent="1" source="1ge-WBIYMBq1j4Ka3UeQ-43" target="1ge-WBIYMBq1j4Ka3UeQ-67">
          <mxGeometry width="50" height="50" relative="1" as="geometry">
            <mxPoint x="190" y="230" as="sourcePoint" />
            <mxPoint x="127.45999999999958" y="-30.059999999999945" as="targetPoint" />
          </mxGeometry>
        </mxCell>
        <mxCell id="1ge-WBIYMBq1j4Ka3UeQ-13" value="" style="endArrow=classic;html=1;rounded=0;exitX=1;exitY=0.223;exitDx=0;exitDy=0;entryX=0;entryY=0.5;entryDx=0;entryDy=0;exitPerimeter=0;" edge="1" parent="1" source="1ge-WBIYMBq1j4Ka3UeQ-43" target="1ge-WBIYMBq1j4Ka3UeQ-77">
          <mxGeometry width="50" height="50" relative="1" as="geometry">
            <mxPoint x="190" y="230" as="sourcePoint" />
            <mxPoint x="218" y="234.87999999999965" as="targetPoint" />
          </mxGeometry>
        </mxCell>
        <mxCell id="1ge-WBIYMBq1j4Ka3UeQ-14" value="" style="endArrow=classic;html=1;rounded=0;exitX=1.001;exitY=0.243;exitDx=0;exitDy=0;entryX=0;entryY=0.5;entryDx=0;entryDy=0;exitPerimeter=0;" edge="1" parent="1" source="1ge-WBIYMBq1j4Ka3UeQ-43" target="1ge-WBIYMBq1j4Ka3UeQ-88">
          <mxGeometry width="50" height="50" relative="1" as="geometry">
            <mxPoint x="190" y="230" as="sourcePoint" />
            <mxPoint x="218.63999999999987" y="323.8399999999997" as="targetPoint" />
          </mxGeometry>
        </mxCell>
        <mxCell id="1ge-WBIYMBq1j4Ka3UeQ-17" value="" style="endArrow=classic;html=1;rounded=0;exitX=1;exitY=0.223;exitDx=0;exitDy=0;entryX=-0.006;entryY=0.857;entryDx=0;entryDy=0;exitPerimeter=0;entryPerimeter=0;" edge="1" parent="1" source="1ge-WBIYMBq1j4Ka3UeQ-43" target="1ge-WBIYMBq1j4Ka3UeQ-94">
          <mxGeometry width="50" height="50" relative="1" as="geometry">
            <mxPoint x="190" y="230" as="sourcePoint" />
            <mxPoint x="180" y="400" as="targetPoint" />
          </mxGeometry>
        </mxCell>
        <mxCell id="1ge-WBIYMBq1j4Ka3UeQ-31" value="Attendance Controller" style="swimlane;fontStyle=0;childLayout=stackLayout;horizontal=1;startSize=30;horizontalStack=0;resizeParent=1;resizeParentMax=0;resizeLast=0;collapsible=1;marginBottom=0;whiteSpace=wrap;html=1;" vertex="1" parent="1">
          <mxGeometry x="-330" y="115" width="380" height="230" as="geometry" />
        </mxCell>
        <mxCell id="1ge-WBIYMBq1j4Ka3UeQ-32" value="&lt;font style=&quot;font-size: 8px;&quot;&gt;public String addAttendanceForm(Model m, Principal principal)&lt;/font&gt;" style="text;strokeColor=none;fillColor=none;align=left;verticalAlign=middle;spacingLeft=4;spacingRight=4;overflow=hidden;points=[[0,0.5],[1,0.5]];portConstraint=eastwest;rotatable=0;whiteSpace=wrap;html=1;" vertex="1" parent="1ge-WBIYMBq1j4Ka3UeQ-31">
          <mxGeometry y="30" width="380" height="20" as="geometry" />
        </mxCell>
        <mxCell id="1ge-WBIYMBq1j4Ka3UeQ-33" value="&lt;font style=&quot;font-size: 8px;&quot;&gt;public String searchStudentForAttendance(@ModelAttribute(&quot;attendance&quot;) Attendance attendance, Model m,Principal principal, @RequestParam(required = false)&lt;/font&gt;" style="text;strokeColor=none;fillColor=none;align=left;verticalAlign=middle;spacingLeft=4;spacingRight=4;overflow=hidden;points=[[0,0.5],[1,0.5]];portConstraint=eastwest;rotatable=0;whiteSpace=wrap;html=1;" vertex="1" parent="1ge-WBIYMBq1j4Ka3UeQ-31">
          <mxGeometry y="50" width="380" height="20" as="geometry" />
        </mxCell>
        <mxCell id="1ge-WBIYMBq1j4Ka3UeQ-34" value="&lt;font style=&quot;font-size: 8px;&quot;&gt;public String saveStudentAttendance(@ModelAttribute Attendance attendance,Model m, Principal principal)&lt;/font&gt;" style="text;strokeColor=none;fillColor=none;align=left;verticalAlign=middle;spacingLeft=4;spacingRight=4;overflow=hidden;points=[[0,0.5],[1,0.5]];portConstraint=eastwest;rotatable=0;whiteSpace=wrap;html=1;" vertex="1" parent="1ge-WBIYMBq1j4Ka3UeQ-31">
          <mxGeometry y="70" width="380" height="20" as="geometry" />
        </mxCell>
        <mxCell id="1ge-WBIYMBq1j4Ka3UeQ-42" value="&lt;font style=&quot;font-size: 8px;&quot;&gt;public String viewDailyAttendance(Model m, Principal principal,@ModelAttribute Attendance attendance,@RequestParam(required = false) String startDate)&lt;/font&gt;" style="text;strokeColor=none;fillColor=none;align=left;verticalAlign=middle;spacingLeft=4;spacingRight=4;overflow=hidden;points=[[0,0.5],[1,0.5]];portConstraint=eastwest;rotatable=0;whiteSpace=wrap;html=1;" vertex="1" parent="1ge-WBIYMBq1j4Ka3UeQ-31">
          <mxGeometry y="90" width="380" height="20" as="geometry" />
        </mxCell>
        <mxCell id="1ge-WBIYMBq1j4Ka3UeQ-43" value="&lt;font style=&quot;font-size: 8px;&quot;&gt;public ModelAndView viewDailyAttendanceByStudentOld(Model m,Principal principal, RedirectAttributes rm)&lt;/font&gt;" style="text;strokeColor=none;fillColor=none;align=left;verticalAlign=middle;spacingLeft=4;spacingRight=4;overflow=hidden;points=[[0,0.5],[1,0.5]];portConstraint=eastwest;rotatable=0;whiteSpace=wrap;html=1;" vertex="1" parent="1ge-WBIYMBq1j4Ka3UeQ-31">
          <mxGeometry y="110" width="380" height="20" as="geometry" />
        </mxCell>
        <mxCell id="1ge-WBIYMBq1j4Ka3UeQ-44" value="&lt;font style=&quot;font-size: 8px;&quot;&gt;public String viewDailyAttendanceByStudent(Model m,Principal principal, RedirectAttributes rm, @ModelAttribute StudentAttendance studentAttendance)&lt;/font&gt;" style="text;strokeColor=none;fillColor=none;align=left;verticalAlign=middle;spacingLeft=4;spacingRight=4;overflow=hidden;points=[[0,0.5],[1,0.5]];portConstraint=eastwest;rotatable=0;whiteSpace=wrap;html=1;" vertex="1" parent="1ge-WBIYMBq1j4Ka3UeQ-31">
          <mxGeometry y="130" width="380" height="20" as="geometry" />
        </mxCell>
        <mxCell id="1ge-WBIYMBq1j4Ka3UeQ-45" value="&lt;font style=&quot;font-size: 8px;&quot;&gt;public String viewRtasAttendance(Model m, Principal principal,@ModelAttribute RtasAttendance rtasAttendance,@RequestParam(required = false) String date)&lt;/font&gt;" style="text;strokeColor=none;fillColor=none;align=left;verticalAlign=middle;spacingLeft=4;spacingRight=4;overflow=hidden;points=[[0,0.5],[1,0.5]];portConstraint=eastwest;rotatable=0;whiteSpace=wrap;html=1;" vertex="1" parent="1ge-WBIYMBq1j4Ka3UeQ-31">
          <mxGeometry y="150" width="380" height="20" as="geometry" />
        </mxCell>
        <mxCell id="1ge-WBIYMBq1j4Ka3UeQ-46" value="&lt;font style=&quot;font-size: 8px;&quot;&gt;public @ResponseBody String getFacultyByCourseForAttendance(@RequestParam(name = &quot;courseId&quot;) String courseId,Principal principal)&lt;/font&gt;" style="text;strokeColor=none;fillColor=none;align=left;verticalAlign=middle;spacingLeft=4;spacingRight=4;overflow=hidden;points=[[0,0.5],[1,0.5]];portConstraint=eastwest;rotatable=0;whiteSpace=wrap;html=1;" vertex="1" parent="1ge-WBIYMBq1j4Ka3UeQ-31">
          <mxGeometry y="170" width="380" height="20" as="geometry" />
        </mxCell>
        <mxCell id="1ge-WBIYMBq1j4Ka3UeQ-47" value="&lt;font style=&quot;font-size: 8px;&quot;&gt;public String showStudentAttendanceSummaryByMonthAndYearNew(Principal principal, Model m,@RequestParam(required = false) String acadMonth, @RequestParam(required = false) String acadYear)&lt;/font&gt;" style="text;strokeColor=none;fillColor=none;align=left;verticalAlign=middle;spacingLeft=4;spacingRight=4;overflow=hidden;points=[[0,0.5],[1,0.5]];portConstraint=eastwest;rotatable=0;whiteSpace=wrap;html=1;" vertex="1" parent="1ge-WBIYMBq1j4Ka3UeQ-31">
          <mxGeometry y="190" width="380" height="20" as="geometry" />
        </mxCell>
        <mxCell id="1ge-WBIYMBq1j4Ka3UeQ-48" value="&lt;font style=&quot;font-size: 8px;&quot;&gt;public @ResponseBody String sendAttendanceDataToSapDemoNew(@RequestParam String date,@RequestParam String username)&lt;/font&gt;" style="text;strokeColor=none;fillColor=none;align=left;verticalAlign=middle;spacingLeft=4;spacingRight=4;overflow=hidden;points=[[0,0.5],[1,0.5]];portConstraint=eastwest;rotatable=0;whiteSpace=wrap;html=1;" vertex="1" parent="1ge-WBIYMBq1j4Ka3UeQ-31">
          <mxGeometry y="210" width="380" height="20" as="geometry" />
        </mxCell>
        <mxCell id="1ge-WBIYMBq1j4Ka3UeQ-62" value="User Service" style="swimlane;fontStyle=0;childLayout=stackLayout;horizontal=1;startSize=30;horizontalStack=0;resizeParent=1;resizeParentMax=0;resizeLast=0;collapsible=1;marginBottom=0;whiteSpace=wrap;html=1;" vertex="1" parent="1">
          <mxGeometry x="180" y="-390" width="380" height="190" as="geometry" />
        </mxCell>
        <mxCell id="1ge-WBIYMBq1j4Ka3UeQ-63" value="&lt;font style=&quot;font-size: 8px;&quot;&gt;public List&amp;lt;User&amp;gt; findAllFacultyByProgramId(Long programId)&lt;/font&gt;" style="text;strokeColor=none;fillColor=none;align=left;verticalAlign=middle;spacingLeft=4;spacingRight=4;overflow=hidden;points=[[0,0.5],[1,0.5]];portConstraint=eastwest;rotatable=0;whiteSpace=wrap;html=1;" vertex="1" parent="1ge-WBIYMBq1j4Ka3UeQ-62">
          <mxGeometry y="30" width="380" height="20" as="geometry" />
        </mxCell>
        <mxCell id="1ge-WBIYMBq1j4Ka3UeQ-64" value="&lt;font style=&quot;font-size: 8px;&quot;&gt;public List&amp;lt;User&amp;gt; findAllFacultiesByDept(String department)&lt;/font&gt;" style="text;strokeColor=none;fillColor=none;align=left;verticalAlign=middle;spacingLeft=4;spacingRight=4;overflow=hidden;points=[[0,0.5],[1,0.5]];portConstraint=eastwest;rotatable=0;whiteSpace=wrap;html=1;" vertex="1" parent="1ge-WBIYMBq1j4Ka3UeQ-62">
          <mxGeometry y="50" width="380" height="20" as="geometry" />
        </mxCell>
        <mxCell id="1ge-WBIYMBq1j4Ka3UeQ-65" value="&lt;font style=&quot;font-size: 8px;&quot;&gt;public List&amp;lt;User&amp;gt; findAllStudents(Long programId)&lt;/font&gt;" style="text;strokeColor=none;fillColor=none;align=left;verticalAlign=middle;spacingLeft=4;spacingRight=4;overflow=hidden;points=[[0,0.5],[1,0.5]];portConstraint=eastwest;rotatable=0;whiteSpace=wrap;html=1;" vertex="1" parent="1ge-WBIYMBq1j4Ka3UeQ-62">
          <mxGeometry y="70" width="380" height="20" as="geometry" />
        </mxCell>
        <mxCell id="1ge-WBIYMBq1j4Ka3UeQ-67" value="&lt;font style=&quot;font-size: 8px;&quot;&gt;public Page&amp;lt;User&amp;gt; findUsers(User user, int pageNo, int pageSize)&lt;/font&gt;" style="text;strokeColor=none;fillColor=none;align=left;verticalAlign=middle;spacingLeft=4;spacingRight=4;overflow=hidden;points=[[0,0.5],[1,0.5]];portConstraint=eastwest;rotatable=0;whiteSpace=wrap;html=1;" vertex="1" parent="1ge-WBIYMBq1j4Ka3UeQ-62">
          <mxGeometry y="90" width="380" height="20" as="geometry" />
        </mxCell>
        <mxCell id="1ge-WBIYMBq1j4Ka3UeQ-66" value="&lt;font style=&quot;font-size: 8px;&quot;&gt;public User findByUserName(final String username)&lt;/font&gt;" style="text;strokeColor=none;fillColor=none;align=left;verticalAlign=middle;spacingLeft=4;spacingRight=4;overflow=hidden;points=[[0,0.5],[1,0.5]];portConstraint=eastwest;rotatable=0;whiteSpace=wrap;html=1;" vertex="1" parent="1ge-WBIYMBq1j4Ka3UeQ-62">
          <mxGeometry y="110" width="380" height="20" as="geometry" />
        </mxCell>
        <mxCell id="1ge-WBIYMBq1j4Ka3UeQ-68" value="&lt;font style=&quot;font-size: 8px;&quot;&gt;public List&amp;lt;User&amp;gt; findAllByCourse(Long courseId)&lt;/font&gt;" style="text;strokeColor=none;fillColor=none;align=left;verticalAlign=middle;spacingLeft=4;spacingRight=4;overflow=hidden;points=[[0,0.5],[1,0.5]];portConstraint=eastwest;rotatable=0;whiteSpace=wrap;html=1;" vertex="1" parent="1ge-WBIYMBq1j4Ka3UeQ-62">
          <mxGeometry y="130" width="380" height="20" as="geometry" />
        </mxCell>
        <mxCell id="1ge-WBIYMBq1j4Ka3UeQ-69" value="&lt;font style=&quot;font-size: 8px;&quot;&gt;public Map&amp;lt;String ,List&amp;lt;User&amp;gt;&amp;gt; checkAllRoleStatsMap(Role role , String fromDate ,String toDate,String type)&lt;/font&gt;" style="text;strokeColor=none;fillColor=none;align=left;verticalAlign=middle;spacingLeft=4;spacingRight=4;overflow=hidden;points=[[0,0.5],[1,0.5]];portConstraint=eastwest;rotatable=0;whiteSpace=wrap;html=1;" vertex="1" parent="1ge-WBIYMBq1j4Ka3UeQ-62">
          <mxGeometry y="150" width="380" height="20" as="geometry" />
        </mxCell>
        <mxCell id="1ge-WBIYMBq1j4Ka3UeQ-70" value="&lt;font style=&quot;font-size: 8px;&quot;&gt;public String getFacultyByCourse(Long courseId, String username)&lt;/font&gt;" style="text;strokeColor=none;fillColor=none;align=left;verticalAlign=middle;spacingLeft=4;spacingRight=4;overflow=hidden;points=[[0,0.5],[1,0.5]];portConstraint=eastwest;rotatable=0;whiteSpace=wrap;html=1;" vertex="1" parent="1ge-WBIYMBq1j4Ka3UeQ-62">
          <mxGeometry y="170" width="380" height="20" as="geometry" />
        </mxCell>
        <mxCell id="1ge-WBIYMBq1j4Ka3UeQ-73" value="Course Service" style="swimlane;fontStyle=0;childLayout=stackLayout;horizontal=1;startSize=30;horizontalStack=0;resizeParent=1;resizeParentMax=0;resizeLast=0;collapsible=1;marginBottom=0;whiteSpace=wrap;html=1;" vertex="1" parent="1">
          <mxGeometry x="180" y="-180" width="380" height="210" as="geometry" />
        </mxCell>
        <mxCell id="1ge-WBIYMBq1j4Ka3UeQ-74" value="&lt;font style=&quot;font-size: 8px;&quot;&gt;public List&amp;lt;Course&amp;gt; findByCoursesBasedOnProgramName(String progName)&lt;/font&gt;" style="text;strokeColor=none;fillColor=none;align=left;verticalAlign=middle;spacingLeft=4;spacingRight=4;overflow=hidden;points=[[0,0.5],[1,0.5]];portConstraint=eastwest;rotatable=0;whiteSpace=wrap;html=1;" vertex="1" parent="1ge-WBIYMBq1j4Ka3UeQ-73">
          <mxGeometry y="30" width="380" height="20" as="geometry" />
        </mxCell>
        <mxCell id="1ge-WBIYMBq1j4Ka3UeQ-75" value="&lt;font style=&quot;font-size: 8px;&quot;&gt;public List&amp;lt;Course&amp;gt; findByCoursesBasedOnProgramNameAndYear(String progName,Integer acadYear)&lt;/font&gt;" style="text;strokeColor=none;fillColor=none;align=left;verticalAlign=middle;spacingLeft=4;spacingRight=4;overflow=hidden;points=[[0,0.5],[1,0.5]];portConstraint=eastwest;rotatable=0;whiteSpace=wrap;html=1;" vertex="1" parent="1ge-WBIYMBq1j4Ka3UeQ-73">
          <mxGeometry y="50" width="380" height="20" as="geometry" />
        </mxCell>
        <mxCell id="1ge-WBIYMBq1j4Ka3UeQ-76" value="&lt;font style=&quot;font-size: 8px;&quot;&gt;public List&amp;lt;Course&amp;gt; findByCourseName(String courseName)&lt;/font&gt;" style="text;strokeColor=none;fillColor=none;align=left;verticalAlign=middle;spacingLeft=4;spacingRight=4;overflow=hidden;points=[[0,0.5],[1,0.5]];portConstraint=eastwest;rotatable=0;whiteSpace=wrap;html=1;" vertex="1" parent="1ge-WBIYMBq1j4Ka3UeQ-73">
          <mxGeometry y="70" width="380" height="20" as="geometry" />
        </mxCell>
        <mxCell id="1ge-WBIYMBq1j4Ka3UeQ-77" value="&lt;font style=&quot;font-size: 8px;&quot;&gt;public List&amp;lt;Course&amp;gt; findByProgramIdAcadSession(String programId, List&amp;lt;String&amp;gt; acadSession)&lt;/font&gt;" style="text;strokeColor=none;fillColor=none;align=left;verticalAlign=middle;spacingLeft=4;spacingRight=4;overflow=hidden;points=[[0,0.5],[1,0.5]];portConstraint=eastwest;rotatable=0;whiteSpace=wrap;html=1;" vertex="1" parent="1ge-WBIYMBq1j4Ka3UeQ-73">
          <mxGeometry y="90" width="380" height="20" as="geometry" />
        </mxCell>
        <mxCell id="1ge-WBIYMBq1j4Ka3UeQ-78" value="&lt;font style=&quot;font-size: 8px;&quot;&gt;public HashMap&amp;lt;Long, String&amp;gt; getCourseIdNameMap()&amp;nbsp;&lt;/font&gt;" style="text;strokeColor=none;fillColor=none;align=left;verticalAlign=middle;spacingLeft=4;spacingRight=4;overflow=hidden;points=[[0,0.5],[1,0.5]];portConstraint=eastwest;rotatable=0;whiteSpace=wrap;html=1;" vertex="1" parent="1ge-WBIYMBq1j4Ka3UeQ-73">
          <mxGeometry y="110" width="380" height="20" as="geometry" />
        </mxCell>
        <mxCell id="1ge-WBIYMBq1j4Ka3UeQ-82" value="&lt;font style=&quot;font-size: 8px;&quot;&gt;public List&amp;lt;Course&amp;gt; getUserCourseByUsername(String username)&lt;/font&gt;" style="text;strokeColor=none;fillColor=none;align=left;verticalAlign=middle;spacingLeft=4;spacingRight=4;overflow=hidden;points=[[0,0.5],[1,0.5]];portConstraint=eastwest;rotatable=0;whiteSpace=wrap;html=1;" vertex="1" parent="1ge-WBIYMBq1j4Ka3UeQ-73">
          <mxGeometry y="130" width="380" height="20" as="geometry" />
        </mxCell>
        <mxCell id="1ge-WBIYMBq1j4Ka3UeQ-79" value="&lt;font style=&quot;font-size: 8px;&quot;&gt;public List&amp;lt;Course&amp;gt; findCoursesByUserForApp(String username)&lt;/font&gt;" style="text;strokeColor=none;fillColor=none;align=left;verticalAlign=middle;spacingLeft=4;spacingRight=4;overflow=hidden;points=[[0,0.5],[1,0.5]];portConstraint=eastwest;rotatable=0;whiteSpace=wrap;html=1;" vertex="1" parent="1ge-WBIYMBq1j4Ka3UeQ-73">
          <mxGeometry y="150" width="380" height="20" as="geometry" />
        </mxCell>
        <mxCell id="1ge-WBIYMBq1j4Ka3UeQ-80" value="&lt;font style=&quot;font-size: 8px;&quot;&gt;public List&amp;lt;Course&amp;gt; findStudentCountCourseWise(List&amp;lt;Long&amp;gt; courseIds)&lt;/font&gt;" style="text;strokeColor=none;fillColor=none;align=left;verticalAlign=middle;spacingLeft=4;spacingRight=4;overflow=hidden;points=[[0,0.5],[1,0.5]];portConstraint=eastwest;rotatable=0;whiteSpace=wrap;html=1;" vertex="1" parent="1ge-WBIYMBq1j4Ka3UeQ-73">
          <mxGeometry y="170" width="380" height="20" as="geometry" />
        </mxCell>
        <mxCell id="1ge-WBIYMBq1j4Ka3UeQ-81" value="&lt;font style=&quot;font-size: 8px;&quot;&gt;public List&amp;lt;Course&amp;gt; findcourseDetailsByCourseIds(Set&amp;lt;String&amp;gt; courseIds)&lt;/font&gt;" style="text;strokeColor=none;fillColor=none;align=left;verticalAlign=middle;spacingLeft=4;spacingRight=4;overflow=hidden;points=[[0,0.5],[1,0.5]];portConstraint=eastwest;rotatable=0;whiteSpace=wrap;html=1;" vertex="1" parent="1ge-WBIYMBq1j4Ka3UeQ-73">
          <mxGeometry y="190" width="380" height="20" as="geometry" />
        </mxCell>
        <mxCell id="1ge-WBIYMBq1j4Ka3UeQ-83" value="User Course Service" style="swimlane;fontStyle=0;childLayout=stackLayout;horizontal=1;startSize=30;horizontalStack=0;resizeParent=1;resizeParentMax=0;resizeLast=0;collapsible=1;marginBottom=0;whiteSpace=wrap;html=1;" vertex="1" parent="1">
          <mxGeometry x="180" y="50" width="380" height="210" as="geometry" />
        </mxCell>
        <mxCell id="1ge-WBIYMBq1j4Ka3UeQ-84" value="&lt;font style=&quot;font-size: 8px;&quot;&gt;public List&amp;lt;UserCourse&amp;gt; findFacultyByCourseID(Long courseId)&lt;/font&gt;" style="text;strokeColor=none;fillColor=none;align=left;verticalAlign=middle;spacingLeft=4;spacingRight=4;overflow=hidden;points=[[0,0.5],[1,0.5]];portConstraint=eastwest;rotatable=0;whiteSpace=wrap;html=1;" vertex="1" parent="1ge-WBIYMBq1j4Ka3UeQ-83">
          <mxGeometry y="30" width="380" height="20" as="geometry" />
        </mxCell>
        <mxCell id="1ge-WBIYMBq1j4Ka3UeQ-85" value="&lt;font style=&quot;font-size: 8px;&quot;&gt;public List&amp;lt;UserCourse&amp;gt; findByUsername(String uname)&lt;/font&gt;" style="text;strokeColor=none;fillColor=none;align=left;verticalAlign=middle;spacingLeft=4;spacingRight=4;overflow=hidden;points=[[0,0.5],[1,0.5]];portConstraint=eastwest;rotatable=0;whiteSpace=wrap;html=1;" vertex="1" parent="1ge-WBIYMBq1j4Ka3UeQ-83">
          <mxGeometry y="50" width="380" height="20" as="geometry" />
        </mxCell>
        <mxCell id="1ge-WBIYMBq1j4Ka3UeQ-86" value="&lt;font style=&quot;font-size: 8px;&quot;&gt;public List&amp;lt;UserCourse&amp;gt; findFacultyByCourseID(Long courseId, String acadMonth, Integer acadYear)&lt;/font&gt;" style="text;strokeColor=none;fillColor=none;align=left;verticalAlign=middle;spacingLeft=4;spacingRight=4;overflow=hidden;points=[[0,0.5],[1,0.5]];portConstraint=eastwest;rotatable=0;whiteSpace=wrap;html=1;" vertex="1" parent="1ge-WBIYMBq1j4Ka3UeQ-83">
          <mxGeometry y="70" width="380" height="20" as="geometry" />
        </mxCell>
        <mxCell id="1ge-WBIYMBq1j4Ka3UeQ-87" value="&lt;font style=&quot;font-size: 8px;&quot;&gt;public List&amp;lt;UserCourse&amp;gt; findStudentsForFaculty(Long courseId)&lt;/font&gt;" style="text;strokeColor=none;fillColor=none;align=left;verticalAlign=middle;spacingLeft=4;spacingRight=4;overflow=hidden;points=[[0,0.5],[1,0.5]];portConstraint=eastwest;rotatable=0;whiteSpace=wrap;html=1;" vertex="1" parent="1ge-WBIYMBq1j4Ka3UeQ-83">
          <mxGeometry y="90" width="380" height="20" as="geometry" />
        </mxCell>
        <mxCell id="1ge-WBIYMBq1j4Ka3UeQ-88" value="&lt;font style=&quot;font-size: 8px;&quot;&gt;public List&amp;lt;Map&amp;lt;String, Object&amp;gt;&amp;gt; getNumberOfStudentsPerCourse()&lt;/font&gt;" style="text;strokeColor=none;fillColor=none;align=left;verticalAlign=middle;spacingLeft=4;spacingRight=4;overflow=hidden;points=[[0,0.5],[1,0.5]];portConstraint=eastwest;rotatable=0;whiteSpace=wrap;html=1;" vertex="1" parent="1ge-WBIYMBq1j4Ka3UeQ-83">
          <mxGeometry y="110" width="380" height="20" as="geometry" />
        </mxCell>
        <mxCell id="1ge-WBIYMBq1j4Ka3UeQ-89" value="&lt;font style=&quot;font-size: 8px;&quot;&gt;public List&amp;lt;UserCourse&amp;gt; getUserbasedOnMultipleCourse(String role, List&amp;lt;String&amp;gt; courseId)&lt;/font&gt;" style="text;strokeColor=none;fillColor=none;align=left;verticalAlign=middle;spacingLeft=4;spacingRight=4;overflow=hidden;points=[[0,0.5],[1,0.5]];portConstraint=eastwest;rotatable=0;whiteSpace=wrap;html=1;" vertex="1" parent="1ge-WBIYMBq1j4Ka3UeQ-83">
          <mxGeometry y="130" width="380" height="20" as="geometry" />
        </mxCell>
        <mxCell id="1ge-WBIYMBq1j4Ka3UeQ-90" value="&lt;font style=&quot;font-size: 8px;&quot;&gt;public List&amp;lt;UserCourse&amp;gt; getUsersBasedOnCourse(Long courseId, String role)&lt;/font&gt;" style="text;strokeColor=none;fillColor=none;align=left;verticalAlign=middle;spacingLeft=4;spacingRight=4;overflow=hidden;points=[[0,0.5],[1,0.5]];portConstraint=eastwest;rotatable=0;whiteSpace=wrap;html=1;" vertex="1" parent="1ge-WBIYMBq1j4Ka3UeQ-83">
          <mxGeometry y="150" width="380" height="20" as="geometry" />
        </mxCell>
        <mxCell id="1ge-WBIYMBq1j4Ka3UeQ-91" value="&lt;font style=&quot;font-size: 8px;&quot;&gt;public List&amp;lt;String&amp;gt; findDistinctStudentByEventIdAndAcadYear(String courseId, String acadYear, String acadSession, String programId, Long icaId, String campusId)&lt;/font&gt;" style="text;strokeColor=none;fillColor=none;align=left;verticalAlign=middle;spacingLeft=4;spacingRight=4;overflow=hidden;points=[[0,0.5],[1,0.5]];portConstraint=eastwest;rotatable=0;whiteSpace=wrap;html=1;" vertex="1" parent="1ge-WBIYMBq1j4Ka3UeQ-83">
          <mxGeometry y="170" width="380" height="20" as="geometry" />
        </mxCell>
        <mxCell id="1ge-WBIYMBq1j4Ka3UeQ-92" value="&lt;font style=&quot;font-size: 8px;&quot;&gt;public List&amp;lt;UserCourse&amp;gt; getFacultiesByProgram(String programId)&lt;/font&gt;" style="text;strokeColor=none;fillColor=none;align=left;verticalAlign=middle;spacingLeft=4;spacingRight=4;overflow=hidden;points=[[0,0.5],[1,0.5]];portConstraint=eastwest;rotatable=0;whiteSpace=wrap;html=1;" vertex="1" parent="1ge-WBIYMBq1j4Ka3UeQ-83">
          <mxGeometry y="190" width="380" height="20" as="geometry" />
        </mxCell>
        <mxCell id="1ge-WBIYMBq1j4Ka3UeQ-93" value="Attendance Service" style="swimlane;fontStyle=0;childLayout=stackLayout;horizontal=1;startSize=30;horizontalStack=0;resizeParent=1;resizeParentMax=0;resizeLast=0;collapsible=1;marginBottom=0;whiteSpace=wrap;html=1;" vertex="1" parent="1">
          <mxGeometry x="180" y="280" width="380" height="70" as="geometry" />
        </mxCell>
        <mxCell id="1ge-WBIYMBq1j4Ka3UeQ-94" value="&lt;font style=&quot;font-size: 8px;&quot;&gt;public String pullFacultyWorkload(String eventId,String facultyId)&lt;/font&gt;" style="text;strokeColor=none;fillColor=none;align=left;verticalAlign=middle;spacingLeft=4;spacingRight=4;overflow=hidden;points=[[0,0.5],[1,0.5]];portConstraint=eastwest;rotatable=0;whiteSpace=wrap;html=1;" vertex="1" parent="1ge-WBIYMBq1j4Ka3UeQ-93">
          <mxGeometry y="30" width="380" height="20" as="geometry" />
        </mxCell>
        <mxCell id="1ge-WBIYMBq1j4Ka3UeQ-95" value="&lt;font style=&quot;font-size: 8px;&quot;&gt;public List&amp;lt;Attendance&amp;gt; findByUser(String username)&lt;/font&gt;" style="text;strokeColor=none;fillColor=none;align=left;verticalAlign=middle;spacingLeft=4;spacingRight=4;overflow=hidden;points=[[0,0.5],[1,0.5]];portConstraint=eastwest;rotatable=0;whiteSpace=wrap;html=1;" vertex="1" parent="1ge-WBIYMBq1j4Ka3UeQ-93">
          <mxGeometry y="50" width="380" height="20" as="geometry" />
        </mxCell>
        <mxCell id="1ge-WBIYMBq1j4Ka3UeQ-103" value="Student Course Service" style="swimlane;fontStyle=0;childLayout=stackLayout;horizontal=1;startSize=30;horizontalStack=0;resizeParent=1;resizeParentMax=0;resizeLast=0;collapsible=1;marginBottom=0;whiteSpace=wrap;html=1;" vertex="1" parent="1">
          <mxGeometry x="180" y="370" width="380" height="350" as="geometry" />
        </mxCell>
        <mxCell id="1ge-WBIYMBq1j4Ka3UeQ-104" value="&lt;font style=&quot;font-size: 8px;&quot;&gt;public List&amp;lt;StudentCourseAttendance&amp;gt; findStudentsForAttendance(Long courseId)&lt;/font&gt;" style="text;strokeColor=none;fillColor=none;align=left;verticalAlign=middle;spacingLeft=4;spacingRight=4;overflow=hidden;points=[[0,0.5],[1,0.5]];portConstraint=eastwest;rotatable=0;whiteSpace=wrap;html=1;" vertex="1" parent="1ge-WBIYMBq1j4Ka3UeQ-103">
          <mxGeometry y="30" width="380" height="20" as="geometry" />
        </mxCell>
        <mxCell id="1ge-WBIYMBq1j4Ka3UeQ-105" value="&lt;font style=&quot;font-size: 8px;&quot;&gt;public StudentCourseAttendance findByCourseIdAndStudent(Long courseId, String username)&lt;/font&gt;" style="text;strokeColor=none;fillColor=none;align=left;verticalAlign=middle;spacingLeft=4;spacingRight=4;overflow=hidden;points=[[0,0.5],[1,0.5]];portConstraint=eastwest;rotatable=0;whiteSpace=wrap;html=1;" vertex="1" parent="1ge-WBIYMBq1j4Ka3UeQ-103">
          <mxGeometry y="50" width="380" height="20" as="geometry" />
        </mxCell>
        <mxCell id="1ge-WBIYMBq1j4Ka3UeQ-106" value="&lt;font style=&quot;font-size: 8px;&quot;&gt;public List&amp;lt;StudentCourseAttendance&amp;gt; findByCourseIdAndDateTime(String courseId, String startTime, String endTime, String facultyId)&lt;/font&gt;" style="text;strokeColor=none;fillColor=none;align=left;verticalAlign=middle;spacingLeft=4;spacingRight=4;overflow=hidden;points=[[0,0.5],[1,0.5]];portConstraint=eastwest;rotatable=0;whiteSpace=wrap;html=1;" vertex="1" parent="1ge-WBIYMBq1j4Ka3UeQ-103">
          <mxGeometry y="70" width="380" height="20" as="geometry" />
        </mxCell>
        <mxCell id="1ge-WBIYMBq1j4Ka3UeQ-107" value="&lt;font style=&quot;font-size: 8px;&quot;&gt;public List&amp;lt;StudentCourseAttendance&amp;gt; getAttendanceStatByUsernameAndCourseId(String username, String courseId)&lt;/font&gt;" style="text;strokeColor=none;fillColor=none;align=left;verticalAlign=middle;spacingLeft=4;spacingRight=4;overflow=hidden;points=[[0,0.5],[1,0.5]];portConstraint=eastwest;rotatable=0;whiteSpace=wrap;html=1;" vertex="1" parent="1ge-WBIYMBq1j4Ka3UeQ-103">
          <mxGeometry y="90" width="380" height="20" as="geometry" />
        </mxCell>
        <mxCell id="1ge-WBIYMBq1j4Ka3UeQ-108" value="&lt;font style=&quot;font-size: 8px;&quot;&gt;public List&amp;lt;StudentCourseAttendance&amp;gt; getAttendanceStatByUsernameAndCourseId(String username, String startDate, String endDate)&amp;nbsp;&lt;/font&gt;" style="text;strokeColor=none;fillColor=none;align=left;verticalAlign=middle;spacingLeft=4;spacingRight=4;overflow=hidden;points=[[0,0.5],[1,0.5]];portConstraint=eastwest;rotatable=0;whiteSpace=wrap;html=1;" vertex="1" parent="1ge-WBIYMBq1j4Ka3UeQ-103">
          <mxGeometry y="110" width="380" height="20" as="geometry" />
        </mxCell>
        <mxCell id="1ge-WBIYMBq1j4Ka3UeQ-109" value="&lt;font style=&quot;font-size: 8px;&quot;&gt;public StudentCourseAttendance getAllPresentRecord(String courseId, String startDate, String endDate, String facultyId)&lt;/font&gt;" style="text;strokeColor=none;fillColor=none;align=left;verticalAlign=middle;spacingLeft=4;spacingRight=4;overflow=hidden;points=[[0,0.5],[1,0.5]];portConstraint=eastwest;rotatable=0;whiteSpace=wrap;html=1;" vertex="1" parent="1ge-WBIYMBq1j4Ka3UeQ-103">
          <mxGeometry y="130" width="380" height="20" as="geometry" />
        </mxCell>
        <mxCell id="1ge-WBIYMBq1j4Ka3UeQ-110" value="&lt;font style=&quot;font-size: 8px;&quot;&gt;public List&amp;lt;StudentCourseAttendance&amp;gt; getAbsentRecordsByDate(String date)&lt;/font&gt;" style="text;strokeColor=none;fillColor=none;align=left;verticalAlign=middle;spacingLeft=4;spacingRight=4;overflow=hidden;points=[[0,0.5],[1,0.5]];portConstraint=eastwest;rotatable=0;whiteSpace=wrap;html=1;" vertex="1" parent="1ge-WBIYMBq1j4Ka3UeQ-103">
          <mxGeometry y="150" width="380" height="20" as="geometry" />
        </mxCell>
        <mxCell id="1ge-WBIYMBq1j4Ka3UeQ-111" value="&lt;font style=&quot;font-size: 8px;&quot;&gt;public List&amp;lt;StudentCourseAttendance&amp;gt; getPresentRecordsByDate(String date)&lt;/font&gt;" style="text;strokeColor=none;fillColor=none;align=left;verticalAlign=middle;spacingLeft=4;spacingRight=4;overflow=hidden;points=[[0,0.5],[1,0.5]];portConstraint=eastwest;rotatable=0;whiteSpace=wrap;html=1;" vertex="1" parent="1ge-WBIYMBq1j4Ka3UeQ-103">
          <mxGeometry y="170" width="380" height="20" as="geometry" />
        </mxCell>
        <mxCell id="1ge-WBIYMBq1j4Ka3UeQ-112" value="&lt;font style=&quot;font-size: 8px;&quot;&gt;public String sendAttendanceToSAPByDateForApp(String date, String dateLike)&lt;/font&gt;" style="text;strokeColor=none;fillColor=none;align=left;verticalAlign=middle;spacingLeft=4;spacingRight=4;overflow=hidden;points=[[0,0.5],[1,0.5]];portConstraint=eastwest;rotatable=0;whiteSpace=wrap;html=1;" vertex="1" parent="1ge-WBIYMBq1j4Ka3UeQ-103">
          <mxGeometry y="190" width="380" height="20" as="geometry" />
        </mxCell>
        <mxCell id="1ge-WBIYMBq1j4Ka3UeQ-113" value="&lt;font style=&quot;font-size: 8px;&quot;&gt;public List&amp;lt;StudentCourseAttendance&amp;gt; getAbsentRecordsByDateForApp(String date, String dateLike)&lt;/font&gt;" style="text;strokeColor=none;fillColor=none;align=left;verticalAlign=middle;spacingLeft=4;spacingRight=4;overflow=hidden;points=[[0,0.5],[1,0.5]];portConstraint=eastwest;rotatable=0;whiteSpace=wrap;html=1;" vertex="1" parent="1ge-WBIYMBq1j4Ka3UeQ-103">
          <mxGeometry y="210" width="380" height="20" as="geometry" />
        </mxCell>
        <mxCell id="1ge-WBIYMBq1j4Ka3UeQ-114" value="&lt;font style=&quot;font-size: 8px;&quot;&gt;public List&amp;lt;StudentCourseAttendance&amp;gt; getPresentRecordsByDateForApp(String date, String dateLike)&lt;/font&gt;" style="text;strokeColor=none;fillColor=none;align=left;verticalAlign=middle;spacingLeft=4;spacingRight=4;overflow=hidden;points=[[0,0.5],[1,0.5]];portConstraint=eastwest;rotatable=0;whiteSpace=wrap;html=1;" vertex="1" parent="1ge-WBIYMBq1j4Ka3UeQ-103">
          <mxGeometry y="230" width="380" height="20" as="geometry" />
        </mxCell>
        <mxCell id="1ge-WBIYMBq1j4Ka3UeQ-115" value="&lt;font style=&quot;font-size: 8px;&quot;&gt;public void sendAttendanceToSAP()&lt;/font&gt;" style="text;strokeColor=none;fillColor=none;align=left;verticalAlign=middle;spacingLeft=4;spacingRight=4;overflow=hidden;points=[[0,0.5],[1,0.5]];portConstraint=eastwest;rotatable=0;whiteSpace=wrap;html=1;" vertex="1" parent="1ge-WBIYMBq1j4Ka3UeQ-103">
          <mxGeometry y="250" width="380" height="20" as="geometry" />
        </mxCell>
        <mxCell id="1ge-WBIYMBq1j4Ka3UeQ-116" value="&lt;font style=&quot;font-size: 8px;&quot;&gt;public List&amp;lt;StudentCourseAttendance&amp;gt; getStudentCourseAttendanceForReport(String dateString, List&amp;lt;String&amp;gt; facultyList)&lt;/font&gt;" style="text;strokeColor=none;fillColor=none;align=left;verticalAlign=middle;spacingLeft=4;spacingRight=4;overflow=hidden;points=[[0,0.5],[1,0.5]];portConstraint=eastwest;rotatable=0;whiteSpace=wrap;html=1;" vertex="1" parent="1ge-WBIYMBq1j4Ka3UeQ-103">
          <mxGeometry y="270" width="380" height="20" as="geometry" />
        </mxCell>
        <mxCell id="1ge-WBIYMBq1j4Ka3UeQ-117" value="&lt;font style=&quot;font-size: 8px;&quot;&gt;public void sendEmailOfAttendance(String subject, String msg)&lt;/font&gt;" style="text;strokeColor=none;fillColor=none;align=left;verticalAlign=middle;spacingLeft=4;spacingRight=4;overflow=hidden;points=[[0,0.5],[1,0.5]];portConstraint=eastwest;rotatable=0;whiteSpace=wrap;html=1;" vertex="1" parent="1ge-WBIYMBq1j4Ka3UeQ-103">
          <mxGeometry y="290" width="380" height="20" as="geometry" />
        </mxCell>
        <mxCell id="1ge-WBIYMBq1j4Ka3UeQ-118" value="&lt;font style=&quot;font-size: 8px;&quot;&gt;public Integer getStudentCountByCourseIdStartEndTime(List&amp;lt;Long&amp;gt; courseId, String startTime, String endTime, String facultyId)&amp;nbsp;&lt;/font&gt;" style="text;strokeColor=none;fillColor=none;align=left;verticalAlign=middle;spacingLeft=4;spacingRight=4;overflow=hidden;points=[[0,0.5],[1,0.5]];portConstraint=eastwest;rotatable=0;whiteSpace=wrap;html=1;" vertex="1" parent="1ge-WBIYMBq1j4Ka3UeQ-103">
          <mxGeometry y="310" width="380" height="20" as="geometry" />
        </mxCell>
        <mxCell id="1ge-WBIYMBq1j4Ka3UeQ-135" value="&lt;font style=&quot;font-size: 8px;&quot;&gt;public Integer getDataCountByOneFacultyId(String courseId, String startTime, String endTime, String facultyId)&amp;nbsp;&lt;/font&gt;" style="text;strokeColor=none;fillColor=none;align=left;verticalAlign=middle;spacingLeft=4;spacingRight=4;overflow=hidden;points=[[0,0.5],[1,0.5]];portConstraint=eastwest;rotatable=0;whiteSpace=wrap;html=1;" vertex="1" parent="1ge-WBIYMBq1j4Ka3UeQ-103">
          <mxGeometry y="330" width="380" height="20" as="geometry" />
        </mxCell>
        <mxCell id="1ge-WBIYMBq1j4Ka3UeQ-138" value="" style="endArrow=classic;html=1;rounded=0;exitX=1;exitY=0.244;exitDx=0;exitDy=0;entryX=0.004;entryY=-0.124;entryDx=0;entryDy=0;entryPerimeter=0;exitPerimeter=0;" edge="1" parent="1" source="1ge-WBIYMBq1j4Ka3UeQ-43" target="1ge-WBIYMBq1j4Ka3UeQ-111">
          <mxGeometry width="50" height="50" relative="1" as="geometry">
            <mxPoint x="380" y="510" as="sourcePoint" />
            <mxPoint x="430" y="460" as="targetPoint" />
          </mxGeometry>
        </mxCell>
        <mxCell id="1ge-WBIYMBq1j4Ka3UeQ-141" value="User Dao" style="swimlane;fontStyle=0;childLayout=stackLayout;horizontal=1;startSize=30;horizontalStack=0;resizeParent=1;resizeParentMax=0;resizeLast=0;collapsible=1;marginBottom=0;whiteSpace=wrap;html=1;" vertex="1" parent="1">
          <mxGeometry x="830" y="-390" width="380" height="190" as="geometry" />
        </mxCell>
        <mxCell id="1ge-WBIYMBq1j4Ka3UeQ-142" value="&lt;font style=&quot;font-size: 8px;&quot;&gt;public List&amp;lt;User&amp;gt; findAllFacultyByProgramId(Long programId)&lt;/font&gt;" style="text;strokeColor=none;fillColor=none;align=left;verticalAlign=middle;spacingLeft=4;spacingRight=4;overflow=hidden;points=[[0,0.5],[1,0.5]];portConstraint=eastwest;rotatable=0;whiteSpace=wrap;html=1;" vertex="1" parent="1ge-WBIYMBq1j4Ka3UeQ-141">
          <mxGeometry y="30" width="380" height="20" as="geometry" />
        </mxCell>
        <mxCell id="1ge-WBIYMBq1j4Ka3UeQ-143" value="&lt;font style=&quot;font-size: 8px;&quot;&gt;public List&amp;lt;User&amp;gt; findAllFacultiesByDept(String department)&lt;/font&gt;" style="text;strokeColor=none;fillColor=none;align=left;verticalAlign=middle;spacingLeft=4;spacingRight=4;overflow=hidden;points=[[0,0.5],[1,0.5]];portConstraint=eastwest;rotatable=0;whiteSpace=wrap;html=1;" vertex="1" parent="1ge-WBIYMBq1j4Ka3UeQ-141">
          <mxGeometry y="50" width="380" height="20" as="geometry" />
        </mxCell>
        <mxCell id="1ge-WBIYMBq1j4Ka3UeQ-144" value="&lt;font style=&quot;font-size: 8px;&quot;&gt;public List&amp;lt;User&amp;gt; findAllStudents(Long programId)&lt;/font&gt;" style="text;strokeColor=none;fillColor=none;align=left;verticalAlign=middle;spacingLeft=4;spacingRight=4;overflow=hidden;points=[[0,0.5],[1,0.5]];portConstraint=eastwest;rotatable=0;whiteSpace=wrap;html=1;" vertex="1" parent="1ge-WBIYMBq1j4Ka3UeQ-141">
          <mxGeometry y="70" width="380" height="20" as="geometry" />
        </mxCell>
        <mxCell id="1ge-WBIYMBq1j4Ka3UeQ-145" value="&lt;font style=&quot;font-size: 8px;&quot;&gt;public Page&amp;lt;User&amp;gt; findUsers(User user, int pageNo, int pageSize)&lt;/font&gt;" style="text;strokeColor=none;fillColor=none;align=left;verticalAlign=middle;spacingLeft=4;spacingRight=4;overflow=hidden;points=[[0,0.5],[1,0.5]];portConstraint=eastwest;rotatable=0;whiteSpace=wrap;html=1;" vertex="1" parent="1ge-WBIYMBq1j4Ka3UeQ-141">
          <mxGeometry y="90" width="380" height="20" as="geometry" />
        </mxCell>
        <mxCell id="1ge-WBIYMBq1j4Ka3UeQ-146" value="&lt;font style=&quot;font-size: 8px;&quot;&gt;public User findByUserName(final String username)&lt;/font&gt;" style="text;strokeColor=none;fillColor=none;align=left;verticalAlign=middle;spacingLeft=4;spacingRight=4;overflow=hidden;points=[[0,0.5],[1,0.5]];portConstraint=eastwest;rotatable=0;whiteSpace=wrap;html=1;" vertex="1" parent="1ge-WBIYMBq1j4Ka3UeQ-141">
          <mxGeometry y="110" width="380" height="20" as="geometry" />
        </mxCell>
        <mxCell id="1ge-WBIYMBq1j4Ka3UeQ-147" value="&lt;font style=&quot;font-size: 8px;&quot;&gt;public List&amp;lt;User&amp;gt; findAllByCourse(Long courseId)&lt;/font&gt;" style="text;strokeColor=none;fillColor=none;align=left;verticalAlign=middle;spacingLeft=4;spacingRight=4;overflow=hidden;points=[[0,0.5],[1,0.5]];portConstraint=eastwest;rotatable=0;whiteSpace=wrap;html=1;" vertex="1" parent="1ge-WBIYMBq1j4Ka3UeQ-141">
          <mxGeometry y="130" width="380" height="20" as="geometry" />
        </mxCell>
        <mxCell id="1ge-WBIYMBq1j4Ka3UeQ-148" value="&lt;font style=&quot;font-size: 8px;&quot;&gt;public Map&amp;lt;String ,List&amp;lt;User&amp;gt;&amp;gt; checkAllRoleStatsMap(Role role , String fromDate ,String toDate,String type)&lt;/font&gt;" style="text;strokeColor=none;fillColor=none;align=left;verticalAlign=middle;spacingLeft=4;spacingRight=4;overflow=hidden;points=[[0,0.5],[1,0.5]];portConstraint=eastwest;rotatable=0;whiteSpace=wrap;html=1;" vertex="1" parent="1ge-WBIYMBq1j4Ka3UeQ-141">
          <mxGeometry y="150" width="380" height="20" as="geometry" />
        </mxCell>
        <mxCell id="1ge-WBIYMBq1j4Ka3UeQ-149" value="&lt;font style=&quot;font-size: 8px;&quot;&gt;public String getFacultyByCourse(Long courseId, String username)&lt;/font&gt;" style="text;strokeColor=none;fillColor=none;align=left;verticalAlign=middle;spacingLeft=4;spacingRight=4;overflow=hidden;points=[[0,0.5],[1,0.5]];portConstraint=eastwest;rotatable=0;whiteSpace=wrap;html=1;" vertex="1" parent="1ge-WBIYMBq1j4Ka3UeQ-141">
          <mxGeometry y="170" width="380" height="20" as="geometry" />
        </mxCell>
        <mxCell id="1ge-WBIYMBq1j4Ka3UeQ-150" value="Course Dao" style="swimlane;fontStyle=0;childLayout=stackLayout;horizontal=1;startSize=30;horizontalStack=0;resizeParent=1;resizeParentMax=0;resizeLast=0;collapsible=1;marginBottom=0;whiteSpace=wrap;html=1;" vertex="1" parent="1">
          <mxGeometry x="830" y="-180" width="380" height="210" as="geometry" />
        </mxCell>
        <mxCell id="1ge-WBIYMBq1j4Ka3UeQ-151" value="&lt;font style=&quot;font-size: 8px;&quot;&gt;public List&amp;lt;Course&amp;gt; findByCoursesBasedOnProgramName(String progName)&lt;/font&gt;" style="text;strokeColor=none;fillColor=none;align=left;verticalAlign=middle;spacingLeft=4;spacingRight=4;overflow=hidden;points=[[0,0.5],[1,0.5]];portConstraint=eastwest;rotatable=0;whiteSpace=wrap;html=1;" vertex="1" parent="1ge-WBIYMBq1j4Ka3UeQ-150">
          <mxGeometry y="30" width="380" height="20" as="geometry" />
        </mxCell>
        <mxCell id="1ge-WBIYMBq1j4Ka3UeQ-152" value="&lt;font style=&quot;font-size: 8px;&quot;&gt;public List&amp;lt;Course&amp;gt; findByCoursesBasedOnProgramNameAndYear(String progName,Integer acadYear)&lt;/font&gt;" style="text;strokeColor=none;fillColor=none;align=left;verticalAlign=middle;spacingLeft=4;spacingRight=4;overflow=hidden;points=[[0,0.5],[1,0.5]];portConstraint=eastwest;rotatable=0;whiteSpace=wrap;html=1;" vertex="1" parent="1ge-WBIYMBq1j4Ka3UeQ-150">
          <mxGeometry y="50" width="380" height="20" as="geometry" />
        </mxCell>
        <mxCell id="1ge-WBIYMBq1j4Ka3UeQ-153" value="&lt;font style=&quot;font-size: 8px;&quot;&gt;public List&amp;lt;Course&amp;gt; findByCourseName(String courseName)&lt;/font&gt;" style="text;strokeColor=none;fillColor=none;align=left;verticalAlign=middle;spacingLeft=4;spacingRight=4;overflow=hidden;points=[[0,0.5],[1,0.5]];portConstraint=eastwest;rotatable=0;whiteSpace=wrap;html=1;" vertex="1" parent="1ge-WBIYMBq1j4Ka3UeQ-150">
          <mxGeometry y="70" width="380" height="20" as="geometry" />
        </mxCell>
        <mxCell id="1ge-WBIYMBq1j4Ka3UeQ-154" value="&lt;font style=&quot;font-size: 8px;&quot;&gt;public List&amp;lt;Course&amp;gt; findByProgramIdAcadSession(String programId, List&amp;lt;String&amp;gt; acadSession)&lt;/font&gt;" style="text;strokeColor=none;fillColor=none;align=left;verticalAlign=middle;spacingLeft=4;spacingRight=4;overflow=hidden;points=[[0,0.5],[1,0.5]];portConstraint=eastwest;rotatable=0;whiteSpace=wrap;html=1;" vertex="1" parent="1ge-WBIYMBq1j4Ka3UeQ-150">
          <mxGeometry y="90" width="380" height="20" as="geometry" />
        </mxCell>
        <mxCell id="1ge-WBIYMBq1j4Ka3UeQ-155" value="&lt;font style=&quot;font-size: 8px;&quot;&gt;public HashMap&amp;lt;Long, String&amp;gt; getCourseIdNameMap()&amp;nbsp;&lt;/font&gt;" style="text;strokeColor=none;fillColor=none;align=left;verticalAlign=middle;spacingLeft=4;spacingRight=4;overflow=hidden;points=[[0,0.5],[1,0.5]];portConstraint=eastwest;rotatable=0;whiteSpace=wrap;html=1;" vertex="1" parent="1ge-WBIYMBq1j4Ka3UeQ-150">
          <mxGeometry y="110" width="380" height="20" as="geometry" />
        </mxCell>
        <mxCell id="1ge-WBIYMBq1j4Ka3UeQ-156" value="&lt;font style=&quot;font-size: 8px;&quot;&gt;public List&amp;lt;Course&amp;gt; getUserCourseByUsername(String username)&lt;/font&gt;" style="text;strokeColor=none;fillColor=none;align=left;verticalAlign=middle;spacingLeft=4;spacingRight=4;overflow=hidden;points=[[0,0.5],[1,0.5]];portConstraint=eastwest;rotatable=0;whiteSpace=wrap;html=1;" vertex="1" parent="1ge-WBIYMBq1j4Ka3UeQ-150">
          <mxGeometry y="130" width="380" height="20" as="geometry" />
        </mxCell>
        <mxCell id="1ge-WBIYMBq1j4Ka3UeQ-157" value="&lt;font style=&quot;font-size: 8px;&quot;&gt;public List&amp;lt;Course&amp;gt; findCoursesByUserForApp(String username)&lt;/font&gt;" style="text;strokeColor=none;fillColor=none;align=left;verticalAlign=middle;spacingLeft=4;spacingRight=4;overflow=hidden;points=[[0,0.5],[1,0.5]];portConstraint=eastwest;rotatable=0;whiteSpace=wrap;html=1;" vertex="1" parent="1ge-WBIYMBq1j4Ka3UeQ-150">
          <mxGeometry y="150" width="380" height="20" as="geometry" />
        </mxCell>
        <mxCell id="1ge-WBIYMBq1j4Ka3UeQ-158" value="&lt;font style=&quot;font-size: 8px;&quot;&gt;public List&amp;lt;Course&amp;gt; findStudentCountCourseWise(List&amp;lt;Long&amp;gt; courseIds)&lt;/font&gt;" style="text;strokeColor=none;fillColor=none;align=left;verticalAlign=middle;spacingLeft=4;spacingRight=4;overflow=hidden;points=[[0,0.5],[1,0.5]];portConstraint=eastwest;rotatable=0;whiteSpace=wrap;html=1;" vertex="1" parent="1ge-WBIYMBq1j4Ka3UeQ-150">
          <mxGeometry y="170" width="380" height="20" as="geometry" />
        </mxCell>
        <mxCell id="1ge-WBIYMBq1j4Ka3UeQ-159" value="&lt;font style=&quot;font-size: 8px;&quot;&gt;public List&amp;lt;Course&amp;gt; findcourseDetailsByCourseIds(Set&amp;lt;String&amp;gt; courseIds)&lt;/font&gt;" style="text;strokeColor=none;fillColor=none;align=left;verticalAlign=middle;spacingLeft=4;spacingRight=4;overflow=hidden;points=[[0,0.5],[1,0.5]];portConstraint=eastwest;rotatable=0;whiteSpace=wrap;html=1;" vertex="1" parent="1ge-WBIYMBq1j4Ka3UeQ-150">
          <mxGeometry y="190" width="380" height="20" as="geometry" />
        </mxCell>
        <mxCell id="1ge-WBIYMBq1j4Ka3UeQ-160" value="User Course Dao" style="swimlane;fontStyle=0;childLayout=stackLayout;horizontal=1;startSize=30;horizontalStack=0;resizeParent=1;resizeParentMax=0;resizeLast=0;collapsible=1;marginBottom=0;whiteSpace=wrap;html=1;" vertex="1" parent="1">
          <mxGeometry x="830" y="50" width="380" height="210" as="geometry" />
        </mxCell>
        <mxCell id="1ge-WBIYMBq1j4Ka3UeQ-161" value="&lt;font style=&quot;font-size: 8px;&quot;&gt;public List&amp;lt;UserCourse&amp;gt; findFacultyByCourseID(Long courseId)&lt;/font&gt;" style="text;strokeColor=none;fillColor=none;align=left;verticalAlign=middle;spacingLeft=4;spacingRight=4;overflow=hidden;points=[[0,0.5],[1,0.5]];portConstraint=eastwest;rotatable=0;whiteSpace=wrap;html=1;" vertex="1" parent="1ge-WBIYMBq1j4Ka3UeQ-160">
          <mxGeometry y="30" width="380" height="20" as="geometry" />
        </mxCell>
        <mxCell id="1ge-WBIYMBq1j4Ka3UeQ-162" value="&lt;font style=&quot;font-size: 8px;&quot;&gt;public List&amp;lt;UserCourse&amp;gt; findByUsername(String uname)&lt;/font&gt;" style="text;strokeColor=none;fillColor=none;align=left;verticalAlign=middle;spacingLeft=4;spacingRight=4;overflow=hidden;points=[[0,0.5],[1,0.5]];portConstraint=eastwest;rotatable=0;whiteSpace=wrap;html=1;" vertex="1" parent="1ge-WBIYMBq1j4Ka3UeQ-160">
          <mxGeometry y="50" width="380" height="20" as="geometry" />
        </mxCell>
        <mxCell id="1ge-WBIYMBq1j4Ka3UeQ-163" value="&lt;font style=&quot;font-size: 8px;&quot;&gt;public List&amp;lt;UserCourse&amp;gt; findFacultyByCourseID(Long courseId, String acadMonth, Integer acadYear)&lt;/font&gt;" style="text;strokeColor=none;fillColor=none;align=left;verticalAlign=middle;spacingLeft=4;spacingRight=4;overflow=hidden;points=[[0,0.5],[1,0.5]];portConstraint=eastwest;rotatable=0;whiteSpace=wrap;html=1;" vertex="1" parent="1ge-WBIYMBq1j4Ka3UeQ-160">
          <mxGeometry y="70" width="380" height="20" as="geometry" />
        </mxCell>
        <mxCell id="1ge-WBIYMBq1j4Ka3UeQ-164" value="&lt;font style=&quot;font-size: 8px;&quot;&gt;public List&amp;lt;UserCourse&amp;gt; findStudentsForFaculty(Long courseId)&lt;/font&gt;" style="text;strokeColor=none;fillColor=none;align=left;verticalAlign=middle;spacingLeft=4;spacingRight=4;overflow=hidden;points=[[0,0.5],[1,0.5]];portConstraint=eastwest;rotatable=0;whiteSpace=wrap;html=1;" vertex="1" parent="1ge-WBIYMBq1j4Ka3UeQ-160">
          <mxGeometry y="90" width="380" height="20" as="geometry" />
        </mxCell>
        <mxCell id="1ge-WBIYMBq1j4Ka3UeQ-165" value="&lt;font style=&quot;font-size: 8px;&quot;&gt;public List&amp;lt;Map&amp;lt;String, Object&amp;gt;&amp;gt; getNumberOfStudentsPerCourse()&lt;/font&gt;" style="text;strokeColor=none;fillColor=none;align=left;verticalAlign=middle;spacingLeft=4;spacingRight=4;overflow=hidden;points=[[0,0.5],[1,0.5]];portConstraint=eastwest;rotatable=0;whiteSpace=wrap;html=1;" vertex="1" parent="1ge-WBIYMBq1j4Ka3UeQ-160">
          <mxGeometry y="110" width="380" height="20" as="geometry" />
        </mxCell>
        <mxCell id="1ge-WBIYMBq1j4Ka3UeQ-166" value="&lt;font style=&quot;font-size: 8px;&quot;&gt;public List&amp;lt;UserCourse&amp;gt; getUserbasedOnMultipleCourse(String role, List&amp;lt;String&amp;gt; courseId)&lt;/font&gt;" style="text;strokeColor=none;fillColor=none;align=left;verticalAlign=middle;spacingLeft=4;spacingRight=4;overflow=hidden;points=[[0,0.5],[1,0.5]];portConstraint=eastwest;rotatable=0;whiteSpace=wrap;html=1;" vertex="1" parent="1ge-WBIYMBq1j4Ka3UeQ-160">
          <mxGeometry y="130" width="380" height="20" as="geometry" />
        </mxCell>
        <mxCell id="1ge-WBIYMBq1j4Ka3UeQ-167" value="&lt;font style=&quot;font-size: 8px;&quot;&gt;public List&amp;lt;UserCourse&amp;gt; getUsersBasedOnCourse(Long courseId, String role)&lt;/font&gt;" style="text;strokeColor=none;fillColor=none;align=left;verticalAlign=middle;spacingLeft=4;spacingRight=4;overflow=hidden;points=[[0,0.5],[1,0.5]];portConstraint=eastwest;rotatable=0;whiteSpace=wrap;html=1;" vertex="1" parent="1ge-WBIYMBq1j4Ka3UeQ-160">
          <mxGeometry y="150" width="380" height="20" as="geometry" />
        </mxCell>
        <mxCell id="1ge-WBIYMBq1j4Ka3UeQ-168" value="&lt;font style=&quot;font-size: 8px;&quot;&gt;public List&amp;lt;String&amp;gt; findDistinctStudentByEventIdAndAcadYear(String courseId, String acadYear, String acadSession, String programId, Long icaId, String campusId)&lt;/font&gt;" style="text;strokeColor=none;fillColor=none;align=left;verticalAlign=middle;spacingLeft=4;spacingRight=4;overflow=hidden;points=[[0,0.5],[1,0.5]];portConstraint=eastwest;rotatable=0;whiteSpace=wrap;html=1;" vertex="1" parent="1ge-WBIYMBq1j4Ka3UeQ-160">
          <mxGeometry y="170" width="380" height="20" as="geometry" />
        </mxCell>
        <mxCell id="1ge-WBIYMBq1j4Ka3UeQ-169" value="&lt;font style=&quot;font-size: 8px;&quot;&gt;public List&amp;lt;UserCourse&amp;gt; getFacultiesByProgram(String programId)&lt;/font&gt;" style="text;strokeColor=none;fillColor=none;align=left;verticalAlign=middle;spacingLeft=4;spacingRight=4;overflow=hidden;points=[[0,0.5],[1,0.5]];portConstraint=eastwest;rotatable=0;whiteSpace=wrap;html=1;" vertex="1" parent="1ge-WBIYMBq1j4Ka3UeQ-160">
          <mxGeometry y="190" width="380" height="20" as="geometry" />
        </mxCell>
        <mxCell id="1ge-WBIYMBq1j4Ka3UeQ-170" value="Attendance Dao" style="swimlane;fontStyle=0;childLayout=stackLayout;horizontal=1;startSize=30;horizontalStack=0;resizeParent=1;resizeParentMax=0;resizeLast=0;collapsible=1;marginBottom=0;whiteSpace=wrap;html=1;" vertex="1" parent="1">
          <mxGeometry x="830" y="280" width="380" height="70" as="geometry" />
        </mxCell>
        <mxCell id="1ge-WBIYMBq1j4Ka3UeQ-171" value="&lt;font style=&quot;font-size: 8px;&quot;&gt;public String pullFacultyWorkload(String eventId,String facultyId)&lt;/font&gt;" style="text;strokeColor=none;fillColor=none;align=left;verticalAlign=middle;spacingLeft=4;spacingRight=4;overflow=hidden;points=[[0,0.5],[1,0.5]];portConstraint=eastwest;rotatable=0;whiteSpace=wrap;html=1;" vertex="1" parent="1ge-WBIYMBq1j4Ka3UeQ-170">
          <mxGeometry y="30" width="380" height="20" as="geometry" />
        </mxCell>
        <mxCell id="1ge-WBIYMBq1j4Ka3UeQ-172" value="&lt;font style=&quot;font-size: 8px;&quot;&gt;public List&amp;lt;Attendance&amp;gt; findByUser(String username)&lt;/font&gt;" style="text;strokeColor=none;fillColor=none;align=left;verticalAlign=middle;spacingLeft=4;spacingRight=4;overflow=hidden;points=[[0,0.5],[1,0.5]];portConstraint=eastwest;rotatable=0;whiteSpace=wrap;html=1;" vertex="1" parent="1ge-WBIYMBq1j4Ka3UeQ-170">
          <mxGeometry y="50" width="380" height="20" as="geometry" />
        </mxCell>
        <mxCell id="1ge-WBIYMBq1j4Ka3UeQ-173" value="Student Course Dao" style="swimlane;fontStyle=0;childLayout=stackLayout;horizontal=1;startSize=30;horizontalStack=0;resizeParent=1;resizeParentMax=0;resizeLast=0;collapsible=1;marginBottom=0;whiteSpace=wrap;html=1;" vertex="1" parent="1">
          <mxGeometry x="830" y="370" width="380" height="350" as="geometry" />
        </mxCell>
        <mxCell id="1ge-WBIYMBq1j4Ka3UeQ-174" value="&lt;font style=&quot;font-size: 8px;&quot;&gt;public List&amp;lt;StudentCourseAttendance&amp;gt; findStudentsForAttendance(Long courseId)&lt;/font&gt;" style="text;strokeColor=none;fillColor=none;align=left;verticalAlign=middle;spacingLeft=4;spacingRight=4;overflow=hidden;points=[[0,0.5],[1,0.5]];portConstraint=eastwest;rotatable=0;whiteSpace=wrap;html=1;" vertex="1" parent="1ge-WBIYMBq1j4Ka3UeQ-173">
          <mxGeometry y="30" width="380" height="20" as="geometry" />
        </mxCell>
        <mxCell id="1ge-WBIYMBq1j4Ka3UeQ-175" value="&lt;font style=&quot;font-size: 8px;&quot;&gt;public StudentCourseAttendance findByCourseIdAndStudent(Long courseId, String username)&lt;/font&gt;" style="text;strokeColor=none;fillColor=none;align=left;verticalAlign=middle;spacingLeft=4;spacingRight=4;overflow=hidden;points=[[0,0.5],[1,0.5]];portConstraint=eastwest;rotatable=0;whiteSpace=wrap;html=1;" vertex="1" parent="1ge-WBIYMBq1j4Ka3UeQ-173">
          <mxGeometry y="50" width="380" height="20" as="geometry" />
        </mxCell>
        <mxCell id="1ge-WBIYMBq1j4Ka3UeQ-176" value="&lt;font style=&quot;font-size: 8px;&quot;&gt;public List&amp;lt;StudentCourseAttendance&amp;gt; findByCourseIdAndDateTime(String courseId, String startTime, String endTime, String facultyId)&lt;/font&gt;" style="text;strokeColor=none;fillColor=none;align=left;verticalAlign=middle;spacingLeft=4;spacingRight=4;overflow=hidden;points=[[0,0.5],[1,0.5]];portConstraint=eastwest;rotatable=0;whiteSpace=wrap;html=1;" vertex="1" parent="1ge-WBIYMBq1j4Ka3UeQ-173">
          <mxGeometry y="70" width="380" height="20" as="geometry" />
        </mxCell>
        <mxCell id="1ge-WBIYMBq1j4Ka3UeQ-177" value="&lt;font style=&quot;font-size: 8px;&quot;&gt;public List&amp;lt;StudentCourseAttendance&amp;gt; getAttendanceStatByUsernameAndCourseId(String username, String courseId)&lt;/font&gt;" style="text;strokeColor=none;fillColor=none;align=left;verticalAlign=middle;spacingLeft=4;spacingRight=4;overflow=hidden;points=[[0,0.5],[1,0.5]];portConstraint=eastwest;rotatable=0;whiteSpace=wrap;html=1;" vertex="1" parent="1ge-WBIYMBq1j4Ka3UeQ-173">
          <mxGeometry y="90" width="380" height="20" as="geometry" />
        </mxCell>
        <mxCell id="1ge-WBIYMBq1j4Ka3UeQ-178" value="&lt;font style=&quot;font-size: 8px;&quot;&gt;public List&amp;lt;StudentCourseAttendance&amp;gt; getAttendanceStatByUsernameAndCourseId(String username, String startDate, String endDate)&amp;nbsp;&lt;/font&gt;" style="text;strokeColor=none;fillColor=none;align=left;verticalAlign=middle;spacingLeft=4;spacingRight=4;overflow=hidden;points=[[0,0.5],[1,0.5]];portConstraint=eastwest;rotatable=0;whiteSpace=wrap;html=1;" vertex="1" parent="1ge-WBIYMBq1j4Ka3UeQ-173">
          <mxGeometry y="110" width="380" height="20" as="geometry" />
        </mxCell>
        <mxCell id="1ge-WBIYMBq1j4Ka3UeQ-179" value="&lt;font style=&quot;font-size: 8px;&quot;&gt;public StudentCourseAttendance getAllPresentRecord(String courseId, String startDate, String endDate, String facultyId)&lt;/font&gt;" style="text;strokeColor=none;fillColor=none;align=left;verticalAlign=middle;spacingLeft=4;spacingRight=4;overflow=hidden;points=[[0,0.5],[1,0.5]];portConstraint=eastwest;rotatable=0;whiteSpace=wrap;html=1;" vertex="1" parent="1ge-WBIYMBq1j4Ka3UeQ-173">
          <mxGeometry y="130" width="380" height="20" as="geometry" />
        </mxCell>
        <mxCell id="1ge-WBIYMBq1j4Ka3UeQ-180" value="&lt;font style=&quot;font-size: 8px;&quot;&gt;public List&amp;lt;StudentCourseAttendance&amp;gt; getAbsentRecordsByDate(String date)&lt;/font&gt;" style="text;strokeColor=none;fillColor=none;align=left;verticalAlign=middle;spacingLeft=4;spacingRight=4;overflow=hidden;points=[[0,0.5],[1,0.5]];portConstraint=eastwest;rotatable=0;whiteSpace=wrap;html=1;" vertex="1" parent="1ge-WBIYMBq1j4Ka3UeQ-173">
          <mxGeometry y="150" width="380" height="20" as="geometry" />
        </mxCell>
        <mxCell id="1ge-WBIYMBq1j4Ka3UeQ-181" value="&lt;font style=&quot;font-size: 8px;&quot;&gt;public List&amp;lt;StudentCourseAttendance&amp;gt; getPresentRecordsByDate(String date)&lt;/font&gt;" style="text;strokeColor=none;fillColor=none;align=left;verticalAlign=middle;spacingLeft=4;spacingRight=4;overflow=hidden;points=[[0,0.5],[1,0.5]];portConstraint=eastwest;rotatable=0;whiteSpace=wrap;html=1;" vertex="1" parent="1ge-WBIYMBq1j4Ka3UeQ-173">
          <mxGeometry y="170" width="380" height="20" as="geometry" />
        </mxCell>
        <mxCell id="1ge-WBIYMBq1j4Ka3UeQ-182" value="&lt;font style=&quot;font-size: 8px;&quot;&gt;public String sendAttendanceToSAPByDateForApp(String date, String dateLike)&lt;/font&gt;" style="text;strokeColor=none;fillColor=none;align=left;verticalAlign=middle;spacingLeft=4;spacingRight=4;overflow=hidden;points=[[0,0.5],[1,0.5]];portConstraint=eastwest;rotatable=0;whiteSpace=wrap;html=1;" vertex="1" parent="1ge-WBIYMBq1j4Ka3UeQ-173">
          <mxGeometry y="190" width="380" height="20" as="geometry" />
        </mxCell>
        <mxCell id="1ge-WBIYMBq1j4Ka3UeQ-183" value="&lt;font style=&quot;font-size: 8px;&quot;&gt;public List&amp;lt;StudentCourseAttendance&amp;gt; getAbsentRecordsByDateForApp(String date, String dateLike)&lt;/font&gt;" style="text;strokeColor=none;fillColor=none;align=left;verticalAlign=middle;spacingLeft=4;spacingRight=4;overflow=hidden;points=[[0,0.5],[1,0.5]];portConstraint=eastwest;rotatable=0;whiteSpace=wrap;html=1;" vertex="1" parent="1ge-WBIYMBq1j4Ka3UeQ-173">
          <mxGeometry y="210" width="380" height="20" as="geometry" />
        </mxCell>
        <mxCell id="1ge-WBIYMBq1j4Ka3UeQ-184" value="&lt;font style=&quot;font-size: 8px;&quot;&gt;public List&amp;lt;StudentCourseAttendance&amp;gt; getPresentRecordsByDateForApp(String date, String dateLike)&lt;/font&gt;" style="text;strokeColor=none;fillColor=none;align=left;verticalAlign=middle;spacingLeft=4;spacingRight=4;overflow=hidden;points=[[0,0.5],[1,0.5]];portConstraint=eastwest;rotatable=0;whiteSpace=wrap;html=1;" vertex="1" parent="1ge-WBIYMBq1j4Ka3UeQ-173">
          <mxGeometry y="230" width="380" height="20" as="geometry" />
        </mxCell>
        <mxCell id="1ge-WBIYMBq1j4Ka3UeQ-185" value="&lt;font style=&quot;font-size: 8px;&quot;&gt;public void sendAttendanceToSAP()&lt;/font&gt;" style="text;strokeColor=none;fillColor=none;align=left;verticalAlign=middle;spacingLeft=4;spacingRight=4;overflow=hidden;points=[[0,0.5],[1,0.5]];portConstraint=eastwest;rotatable=0;whiteSpace=wrap;html=1;" vertex="1" parent="1ge-WBIYMBq1j4Ka3UeQ-173">
          <mxGeometry y="250" width="380" height="20" as="geometry" />
        </mxCell>
        <mxCell id="1ge-WBIYMBq1j4Ka3UeQ-186" value="&lt;font style=&quot;font-size: 8px;&quot;&gt;public List&amp;lt;StudentCourseAttendance&amp;gt; getStudentCourseAttendanceForReport(String dateString, List&amp;lt;String&amp;gt; facultyList)&lt;/font&gt;" style="text;strokeColor=none;fillColor=none;align=left;verticalAlign=middle;spacingLeft=4;spacingRight=4;overflow=hidden;points=[[0,0.5],[1,0.5]];portConstraint=eastwest;rotatable=0;whiteSpace=wrap;html=1;" vertex="1" parent="1ge-WBIYMBq1j4Ka3UeQ-173">
          <mxGeometry y="270" width="380" height="20" as="geometry" />
        </mxCell>
        <mxCell id="1ge-WBIYMBq1j4Ka3UeQ-187" value="&lt;font style=&quot;font-size: 8px;&quot;&gt;public void sendEmailOfAttendance(String subject, String msg)&lt;/font&gt;" style="text;strokeColor=none;fillColor=none;align=left;verticalAlign=middle;spacingLeft=4;spacingRight=4;overflow=hidden;points=[[0,0.5],[1,0.5]];portConstraint=eastwest;rotatable=0;whiteSpace=wrap;html=1;" vertex="1" parent="1ge-WBIYMBq1j4Ka3UeQ-173">
          <mxGeometry y="290" width="380" height="20" as="geometry" />
        </mxCell>
        <mxCell id="1ge-WBIYMBq1j4Ka3UeQ-188" value="&lt;font style=&quot;font-size: 8px;&quot;&gt;public Integer getStudentCountByCourseIdStartEndTime(List&amp;lt;Long&amp;gt; courseId, String startTime, String endTime, String facultyId)&amp;nbsp;&lt;/font&gt;" style="text;strokeColor=none;fillColor=none;align=left;verticalAlign=middle;spacingLeft=4;spacingRight=4;overflow=hidden;points=[[0,0.5],[1,0.5]];portConstraint=eastwest;rotatable=0;whiteSpace=wrap;html=1;" vertex="1" parent="1ge-WBIYMBq1j4Ka3UeQ-173">
          <mxGeometry y="310" width="380" height="20" as="geometry" />
        </mxCell>
        <mxCell id="1ge-WBIYMBq1j4Ka3UeQ-189" value="&lt;font style=&quot;font-size: 8px;&quot;&gt;public Integer getDataCountByOneFacultyId(String courseId, String startTime, String endTime, String facultyId)&amp;nbsp;&lt;/font&gt;" style="text;strokeColor=none;fillColor=none;align=left;verticalAlign=middle;spacingLeft=4;spacingRight=4;overflow=hidden;points=[[0,0.5],[1,0.5]];portConstraint=eastwest;rotatable=0;whiteSpace=wrap;html=1;" vertex="1" parent="1ge-WBIYMBq1j4Ka3UeQ-173">
          <mxGeometry y="330" width="380" height="20" as="geometry" />
        </mxCell>
        <mxCell id="1ge-WBIYMBq1j4Ka3UeQ-190" value="" style="endArrow=classic;html=1;rounded=0;exitX=0.996;exitY=0.075;exitDx=0;exitDy=0;exitPerimeter=0;entryX=-0.001;entryY=-0.05;entryDx=0;entryDy=0;entryPerimeter=0;" edge="1" parent="1" source="1ge-WBIYMBq1j4Ka3UeQ-66" target="1ge-WBIYMBq1j4Ka3UeQ-146">
          <mxGeometry width="50" height="50" relative="1" as="geometry">
            <mxPoint x="710" y="-20" as="sourcePoint" />
            <mxPoint x="760" y="-70" as="targetPoint" />
          </mxGeometry>
        </mxCell>
        <mxCell id="1ge-WBIYMBq1j4Ka3UeQ-191" value="" style="endArrow=classic;html=1;rounded=0;exitX=1;exitY=0.5;exitDx=0;exitDy=0;entryX=-0.001;entryY=-0.113;entryDx=0;entryDy=0;entryPerimeter=0;" edge="1" parent="1" source="1ge-WBIYMBq1j4Ka3UeQ-78" target="1ge-WBIYMBq1j4Ka3UeQ-155">
          <mxGeometry width="50" height="50" relative="1" as="geometry">
            <mxPoint x="710" y="-20" as="sourcePoint" />
            <mxPoint x="760" y="-70" as="targetPoint" />
          </mxGeometry>
        </mxCell>
        <mxCell id="1ge-WBIYMBq1j4Ka3UeQ-192" value="" style="endArrow=classic;html=1;rounded=0;exitX=1;exitY=0.5;exitDx=0;exitDy=0;entryX=0;entryY=0.5;entryDx=0;entryDy=0;" edge="1" parent="1" source="1ge-WBIYMBq1j4Ka3UeQ-88" target="1ge-WBIYMBq1j4Ka3UeQ-164">
          <mxGeometry width="50" height="50" relative="1" as="geometry">
            <mxPoint x="710" y="-20" as="sourcePoint" />
            <mxPoint x="760" y="-70" as="targetPoint" />
          </mxGeometry>
        </mxCell>
        <mxCell id="1ge-WBIYMBq1j4Ka3UeQ-193" value="" style="endArrow=classic;html=1;rounded=0;exitX=1.006;exitY=0.075;exitDx=0;exitDy=0;exitPerimeter=0;entryX=-0.001;entryY=0.012;entryDx=0;entryDy=0;entryPerimeter=0;" edge="1" parent="1" source="1ge-WBIYMBq1j4Ka3UeQ-95" target="1ge-WBIYMBq1j4Ka3UeQ-172">
          <mxGeometry width="50" height="50" relative="1" as="geometry">
            <mxPoint x="710" y="350" as="sourcePoint" />
            <mxPoint x="640" y="340" as="targetPoint" />
          </mxGeometry>
        </mxCell>
        <mxCell id="1ge-WBIYMBq1j4Ka3UeQ-194" value="" style="endArrow=classic;html=1;rounded=0;entryX=-0.001;entryY=0.012;entryDx=0;entryDy=0;entryPerimeter=0;" edge="1" parent="1" target="1ge-WBIYMBq1j4Ka3UeQ-179">
          <mxGeometry width="50" height="50" relative="1" as="geometry">
            <mxPoint x="560" y="518" as="sourcePoint" />
            <mxPoint x="760" y="430" as="targetPoint" />
          </mxGeometry>
        </mxCell>
        <mxCell id="1ge-WBIYMBq1j4Ka3UeQ-195" value="" style="endArrow=classic;html=1;rounded=0;exitX=1.003;exitY=-0.113;exitDx=0;exitDy=0;exitPerimeter=0;entryX=0;entryY=0.5;entryDx=0;entryDy=0;" edge="1" parent="1" source="1ge-WBIYMBq1j4Ka3UeQ-110" target="1ge-WBIYMBq1j4Ka3UeQ-154">
          <mxGeometry width="50" height="50" relative="1" as="geometry">
            <mxPoint x="710" y="230" as="sourcePoint" />
            <mxPoint x="760" y="180" as="targetPoint" />
          </mxGeometry>
        </mxCell>
      </root>
    </mxGraphModel>
  </diagram>
</mxfile>
